<svg xmlns="http://www.w3.org/2000/svg" width="1024" height="1024" viewBox="0 0 1024 1024">
  <defs>
    <linearGradient id="bg" x1="0" y1="0" x2="1" y2="1">
      <stop offset="0" stop-color="#302b2b"/>
      <stop offset="1" stop-color="#201d1d"/>
    </linearGradient>
    <linearGradient id="sail" x1="0" y1="0" x2="1" y2="1">
      <stop offset="0" stop-color="#3da3ff"/>
      <stop offset="1" stop-color="#007aff"/>
    </linearGradient>
  </defs>
  <rect width="1024" height="1024" fill="url(#bg)"/>
  <circle cx="510" cy="490" r="310" fill="#007aff" opacity=".08"/>
  <path d="M500 230v436" stroke="#fdfcfc" stroke-width="20" stroke-linecap="round"/>
  <path d="M475 270C340 350 274 480 276 622h199V270Z" fill="#fdfcfc"/>
  <path d="M528 254c157 92 236 216 238 368H528V254Z" fill="url(#sail)"/>
  <path d="M244 678h548c-28 106-119 153-273 153S272 784 244 678Z" fill="#fdfcfc"/>
  <path d="M303 749c54 30 100 30 154 0s100-30 154 0 100 30 154 0" fill="none" stroke="#007aff" stroke-width="25" stroke-linecap="round"/>
  <path d="M314 842c48 26 90 26 138 0s90-26 138 0 90 26 138 0" fill="none" stroke="#f1eeee" stroke-width="18" stroke-linecap="round" opacity=".9"/>
</svg>
